<svg width="40" height="40" viewBox="0 0 40 40" fill="none" xmlns="http://www.w3.org/2000/svg">
<path fill-rule="evenodd" clip-rule="evenodd" d="M29.5567 19.9108C33.5791 19.319 36.6667 15.8534 36.6667 11.6666C36.6667 7.06421 32.9357 3.33325 28.3334 3.33325C24.1466 3.33325 20.6809 6.42084 20.0892 10.4433C20.0305 10.8425 20 11.251 20 11.6666C20 16.269 23.731 19.9999 28.3334 19.9999C28.749 19.9999 29.1574 19.9695 29.5567 19.9108ZM16.6667 9.99992C17.0197 9.99992 17.3696 10.0136 17.7157 10.0406C17.7075 10.091 17.6997 10.1415 17.6923 10.1922C17.6159 10.7112 17.5764 11.2422 17.5764 11.7825C17.5764 17.7656 22.4266 22.6158 28.4097 22.6158C28.9412 22.6158 29.4637 22.5776 29.9746 22.5036C29.9915 22.778 30 23.0546 30 23.3333C30 30.697 24.0305 36.6666 16.6667 36.6666C9.30291 36.6666 3.33337 30.697 3.33337 23.3333C3.33337 15.9695 9.30291 9.99992 16.6667 9.99992Z" fill="white"/>
</svg>
