<svg width="40" height="40" viewBox="0 0 40 40" fill="none" xmlns="http://www.w3.org/2000/svg">
<path fill-rule="evenodd" clip-rule="evenodd" d="M20 36.6666C29.2047 36.6666 36.6666 29.2047 36.6666 19.9999C36.6666 10.7952 29.2047 3.33325 20 3.33325C10.7952 3.33325 3.33331 10.7952 3.33331 19.9999C3.33331 29.2047 10.7952 36.6666 20 36.6666ZM15.8242 24.0602C15.3081 23.6074 14.5225 23.6556 14.0657 24.1695C13.6071 24.6855 13.6536 25.4755 14.1695 25.9342L14.628 26.2865C14.8985 26.4747 15.2867 26.7175 15.7828 26.958C16.775 27.4391 18.2113 27.9166 20 27.9166C21.7887 27.9166 23.225 27.4391 24.2172 26.958C24.7133 26.7175 25.1015 26.4747 25.372 26.2865C25.5075 26.1922 25.6142 26.1112 25.6908 26.0503L25.8304 25.9342C26.3464 25.4755 26.3929 24.6855 25.9343 24.1695C25.4774 23.6556 24.6918 23.6074 24.1757 24.0602L23.9444 24.2342C23.7657 24.3585 23.4898 24.5324 23.1265 24.7085C22.4 25.0608 21.3363 25.4166 20 25.4166C18.6637 25.4166 17.6 25.0608 16.8735 24.7085C16.5102 24.5324 16.2343 24.3585 16.0556 24.2342L15.8242 24.0602ZM28.3333 16.6666C28.3333 17.5871 27.5871 18.3333 26.6666 18.3333C25.7462 18.3333 25 17.5871 25 16.6666C25 15.7461 25.7462 14.9999 26.6666 14.9999C27.5871 14.9999 28.3333 15.7461 28.3333 16.6666ZM13.3333 18.3333C14.2538 18.3333 15 17.5871 15 16.6666C15 15.7461 14.2538 14.9999 13.3333 14.9999C12.4128 14.9999 11.6666 15.7461 11.6666 16.6666C11.6666 17.5871 12.4128 18.3333 13.3333 18.3333Z" fill="white"/>
</svg>
