<svg width="36" height="36" viewBox="0 0 36 36" fill="none" xmlns="http://www.w3.org/2000/svg">
<path fill-rule="evenodd" clip-rule="evenodd" d="M16.1553 3.41461C17.3166 2.83396 18.6835 2.83396 19.8448 3.41461L30.8199 8.90215C32.7546 9.86953 32.7546 12.6305 30.8199 13.5979L19.8448 19.0854C18.6835 19.6661 17.3166 19.6661 16.1553 19.0854L5.18019 13.5979C3.24543 12.6305 3.24544 9.86952 5.18019 8.90215L16.1553 3.41461ZM3.47188 25.793C3.72422 25.2252 4.38905 24.9695 4.95682 25.2219L17.2384 30.6804C17.7232 30.8958 18.2766 30.8958 18.7614 30.6804L31.043 25.2219C31.6108 24.9695 32.2756 25.2252 32.528 25.793C32.7803 26.3608 32.5246 27.0256 31.9568 27.278L19.6752 32.7364C18.6087 33.2105 17.3912 33.2105 16.3246 32.7364L4.04301 27.278C3.47524 27.0256 3.21953 26.3608 3.47188 25.793ZM4.95682 18.4719C4.38905 18.2195 3.72422 18.4752 3.47188 19.043C3.21953 19.6108 3.47524 20.2756 4.04301 20.528L16.3246 25.9864C17.3912 26.4605 18.6087 26.4605 19.6752 25.9864L31.9568 20.528C32.5246 20.2756 32.7803 19.6108 32.528 19.043C32.2756 18.4752 31.6108 18.2195 31.043 18.4719L18.7614 23.9304C18.2766 24.1458 17.7232 24.1458 17.2384 23.9304L4.95682 18.4719Z" fill="#FD0000"/>
</svg>
