<svg width="36" height="36" viewBox="0 0 36 36" fill="none" xmlns="http://www.w3.org/2000/svg">
<path fill-rule="evenodd" clip-rule="evenodd" d="M27 13.8333C27 18.988 21.375 25.5 18 25.5C14.625 25.5 9 18.988 9 13.8333C9 8.67868 13.0294 4.5 18 4.5C22.9706 4.5 27 8.67868 27 13.8333ZM21 13.5C21 15.1569 19.6569 16.5 18 16.5C16.3431 16.5 15 15.1569 15 13.5C15 11.8431 16.3431 10.5 18 10.5C19.6569 10.5 21 11.8431 21 13.5ZM8.75019 24H10.7555C13.1061 26.6496 15.8847 28.5 18.0002 28.5C20.1157 28.5 22.8942 26.6496 25.2449 24H27.2502C28.4613 24 29.5536 24.7282 30.0194 25.8462L31.2694 28.8462C32.0928 30.8222 30.6409 33 28.5002 33H7.50019C5.35945 33 3.9076 30.8222 4.73096 28.8462L5.98096 25.8462C6.44677 24.7282 7.53909 24 8.75019 24Z" fill="#FD0000"/>
</svg>
