<svg width="36" height="36" viewBox="0 0 36 36" fill="none" xmlns="http://www.w3.org/2000/svg">
<path fill-rule="evenodd" clip-rule="evenodd" d="M4.125 18C4.125 10.337 10.337 4.125 18 4.125C25.6238 4.125 31.8116 10.2738 31.8745 17.8826C31.8797 18.5039 32.3875 19.0034 33.0088 18.9983C33.6301 18.9932 34.1296 18.4853 34.1244 17.864C34.0513 9.02092 26.8602 1.875 18 1.875C9.09441 1.875 1.875 9.09441 1.875 18C1.875 26.8602 9.02092 34.0513 17.864 34.1244C18.4853 34.1296 18.9932 33.6301 18.9983 33.0088C19.0034 32.3875 18.5039 31.8797 17.8826 31.8745C10.2738 31.8116 4.125 25.6238 4.125 18ZM18 11.625C14.4792 11.625 11.625 14.4792 11.625 18C11.625 20.6752 13.2732 22.9682 15.6138 23.9137C16.1899 24.1464 16.4683 24.8021 16.2356 25.3782C16.0028 25.9543 15.3472 26.2327 14.7711 25.9999C11.6093 24.7227 9.375 21.6236 9.375 18C9.375 13.2365 13.2365 9.375 18 9.375C21.6236 9.375 24.7227 11.6093 25.9999 14.7711C26.2327 15.3472 25.9543 16.0028 25.3782 16.2356C24.8021 16.4683 24.1464 16.1899 23.9137 15.6138C22.9682 13.2732 20.6752 11.625 18 11.625ZM22.0049 31.8922L18.0859 20.1353C17.6638 18.8687 18.8687 17.6638 20.1353 18.0859L31.8922 22.0049C33.3693 22.4973 33.3693 24.5866 31.8922 25.0789L27.5508 26.5261C27.067 26.6873 26.6873 27.067 26.5261 27.5508L25.0789 31.8922C24.5866 33.3693 22.4973 33.3693 22.0049 31.8922Z" fill="#FD0000"/>
</svg>
