<svg width="86" height="59" viewBox="0 0 86 59" fill="none" xmlns="http://www.w3.org/2000/svg">
<path fill-rule="evenodd" clip-rule="evenodd" d="M43.8119 53.6634C58.6306 53.6634 70.6436 41.6504 70.6436 26.8317C70.6436 12.013 58.6306 0 43.8119 0C28.9931 0 16.9802 12.013 16.9802 26.8317C16.9802 41.6504 28.9931 53.6634 43.8119 53.6634ZM43.8119 46.5347C54.6935 46.5347 63.5148 37.7133 63.5148 26.8317C63.5148 15.95 54.6935 7.12871 43.8119 7.12871C32.9302 7.12871 24.1089 15.95 24.1089 26.8317C24.1089 37.7133 32.9302 46.5347 43.8119 46.5347Z" fill="black"/>
<path d="M4.08179 35.7909L2.98097 36.6431L3.74876 37.8043L14.3428 53.8273L15.5146 55.5996L16.7924 53.9021C25.1406 42.8126 38.2469 34.1345 51.3636 27.7895C64.4609 21.4538 77.42 17.5153 85.3123 15.835L85.125 12.8731C47.9751 9.76629 15.672 26.8187 4.08179 35.7909Z" fill="#FD0000" stroke="white" stroke-width="3"/>
</svg>
