<svg width="36" height="36" viewBox="0 0 36 36" fill="none" xmlns="http://www.w3.org/2000/svg">
<circle cx="18" cy="18" r="18" fill="#FD0000"/>
<path fill-rule="evenodd" clip-rule="evenodd" d="M12.3038 9.99792C12.3038 9.99791 12.304 9.99817 12.3044 9.99878ZM12.3468 10.0662L14.3541 13.26C14.1115 13.49 13.847 13.7178 13.5622 13.9629C13.3175 14.1736 13.0579 14.3971 12.7845 14.6459C12.1071 15.2624 11.9762 16.2539 12.4147 17.0256C14.7333 21.1062 17.8957 22.963 19.3107 23.6296C20.1632 24.0312 21.0894 23.7143 21.605 23.058L22.994 21.2899C22.9949 21.2888 22.9948 21.2891 22.9943 21.2894C22.9942 21.2895 22.9952 21.2889 22.9973 21.2885C22.9994 21.2882 23.0015 21.2882 23.0032 21.2885C23.0045 21.2888 23.0062 21.2892 23.0091 21.291C23.8185 21.7906 24.9477 22.4694 25.985 23.0442C25.7987 24.1688 25.3708 24.824 24.8989 25.2246C24.4035 25.6451 23.7628 25.8665 23.0482 25.9464C21.6213 26.106 20.1728 25.6731 19.8516 25.5677C19.4971 25.3864 17.5536 24.3634 15.4772 22.7056C13.3361 20.9961 11.1892 18.7178 10.3681 16.1049C9.768 14.1953 9.99428 12.8515 10.4659 11.9246C10.9219 11.0285 11.6597 10.4203 12.3468 10.0662ZM11.6207 8.17596C12.5666 7.72731 13.5448 8.19509 14.0004 8.92002L16.1003 12.2612C16.5248 12.9367 16.5539 13.9241 15.8637 14.6006C15.568 14.8905 15.1564 15.2468 14.7735 15.5784C14.5633 15.7604 14.3617 15.9349 14.1926 16.0869C16.1881 19.5617 18.856 21.1693 20.0694 21.7572L21.4201 20.0378C22.0579 19.226 23.1934 19.0363 24.0581 19.57C24.858 20.0636 25.9638 20.7281 26.966 21.2829C27.6343 21.653 28.1124 22.4244 27.977 23.2954C27.7337 24.8596 27.0982 25.999 26.1926 26.7678C25.3022 27.5237 24.2415 27.8444 23.2698 27.953C21.3585 28.1668 19.5305 27.588 19.1967 27.4763C19.1122 27.4479 19.042 27.4181 18.9666 27.3798C18.6083 27.1977 16.4963 26.0965 14.2302 24.2872C11.9876 22.4967 9.45851 19.9066 8.45514 16.7137C7.71811 14.3682 7.93614 12.4665 8.68011 11.0044C9.41105 9.56791 10.5948 8.66257 11.6207 8.17596Z" fill="white"/>
</svg>
