<svg width="24" height="24" viewBox="0 0 24 24" fill="none" xmlns="http://www.w3.org/2000/svg">
<path fill-rule="evenodd" clip-rule="evenodd" d="M17.3238 4.91639C16.1121 3.69996 14.1758 3.69996 12.9641 4.91638L6.40344 11.5023C4.4682 13.445 4.4682 16.6418 6.40344 18.5845C8.27815 20.4664 11.2737 20.4664 13.1484 18.5845L19.3416 12.3674C19.7271 11.9805 20.345 11.9876 20.7218 12.3833C21.0987 12.779 21.0917 13.4134 20.7063 13.8003L14.5131 20.0174C11.8798 22.6609 7.67207 22.6609 5.03876 20.0174C2.32041 17.2886 2.32041 12.7982 5.03876 10.0694L11.5994 3.48346C13.5698 1.50551 16.7182 1.50551 18.6885 3.48347C20.7225 5.52529 20.7225 8.88524 18.6885 10.9271L12.3774 17.2625C11.2026 18.4419 9.3253 18.4419 8.15047 17.2625C6.9377 16.0451 6.9377 14.0417 8.15047 12.8243L13.4856 7.46857C13.871 7.08167 14.489 7.0888 14.8658 7.48449C15.2427 7.88018 15.2357 8.51459 14.8503 8.90149L9.51516 14.2572C9.08549 14.6885 9.08549 15.3983 9.51516 15.8296C9.93138 16.2474 10.5965 16.2474 11.0127 15.8296L17.3238 9.49414C18.5747 8.23844 18.5747 6.17209 17.3238 4.91639Z" fill="#EE273D"/>
</svg>
